<mxfile host="app.diagrams.net" modified="2023-11-23T18:47:04.443Z" agent="Mozilla/5.0 (Macintosh; Intel Mac OS X 10_15_7) AppleWebKit/537.36 (KHTML, like Gecko) Chrome/119.0.0.0 Safari/537.36" version="22.1.3" etag="B_tjVSbUEuvcnKf7L5hR" type="github">
  <diagram name="Page-1" id="tZ4jIH-2l1GWaG3se7ZI">
    <mxGraphModel>
      <root>
        <mxCell id="0" />
        <mxCell id="1" parent="0" />
      </root>
    </mxGraphModel>
  </diagram>
</mxfile>
